# xmcd CD database file
#
# Track frame offsets:
#	150
#	17556
#	43321
#	64483
#	78116
#	116865
#	148459
#	172622
#	191548
#	218883
#	244725
#	260966
#	278704
#
# Disc length: 3960 seconds
#
# Revision: 0
# Processed by: cddbd v1.5.2PL0 Copyright (c) Steve Scherf et al.
# Submitted via: CDex 1.70beta2
#
DISCID=c60f760d
DTITLE=羽田健太郎 - 羽田健太郎&フレンズ
DYEAR=2009
DGENRE=Jazz
TTITLE0=タイム・トゥ・セイ・グッバイ
TTITLE1=オブリビヨン
TTITLE2=おもいでの夏
TTITLE3=ストルネッロ
TTITLE4=乙女の祈り
TTITLE5=エレジー
TTITLE6=ベス、お前は俺のもの
TTITLE7=秋のワルツ
TTITLE8=アンダンテ・カンタービレ
TTITLE9=冬の旅へ
TTITLE10=ダイアモンド・ダスト
TTITLE11=カンティレーナ
TTITLE12=ヴォカリーズ
EXTD=YEAR: 2009
EXTT0=
EXTT1=
EXTT2=
EXTT3=
EXTT4=
EXTT5=
EXTT6=
EXTT7=
EXTT8=
EXTT9=
EXTT10=
EXTT11=
EXTT12=
PLAYORDER=
